# xmcd
#
# Track frame offsets: 
#        150
#        33642
#        74920
#        113657
#        124417
#        143427
#        157052
#        175162
#
# Disc length: 2823 seconds
#
# Revision: 2
# Processed by: cddbd v1.5.2PL0 Copyright (c) Steve Scherf et al.
# Submitted via: ExactAudioCopyFreeDBPlugin 1.0
#
DISCID=750b0508
DTITLE=Neil Young with Crazy Horse - Broken Arrow
DYEAR=1996
DGENRE=Folk/Rock
TTITLE0=Big Time
TTITLE1=Loose Change
TTITLE2=Slip Away
TTITLE3=Changing Highways
TTITLE4=Scattered (Let's Think About Livin')
TTITLE5=This Town
TTITLE6=Music Arcade
TTITLE7=Baby What You Want Me To Do
EXTD=
EXTT0=
EXTT1=
EXTT2=
EXTT3=
EXTT4=
EXTT5=
EXTT6=
EXTT7=
PLAYORDER=
